<?xml version="1.0" encoding="UTF-8"?>
<svg version="1.1" xmlns="http://www.w3.org/2000/svg" width="450" height="287">
<path d="M0 0 C0.904655 -0.0049649 1.80931 -0.00992981 2.74137878 -0.01504517 C5.74564372 -0.02968757 8.74985556 -0.03647814 11.75415039 -0.04199219 C13.85429382 -0.04774925 15.95443726 -0.05350691 18.05458069 -0.05926514 C22.472262 -0.069786 26.8899251 -0.07561916 31.30761719 -0.07910156 C36.91404625 -0.08453815 42.52022647 -0.10845634 48.12657833 -0.13707352 C52.47576034 -0.15590364 56.8248854 -0.16091655 61.17410469 -0.16243744 C63.23694761 -0.16542729 65.29979045 -0.17332831 67.3625927 -0.18662262 C95.66171106 -0.35573294 125.61002433 2.82481509 147.16430664 23.16113281 C159.68247983 36.18620386 163.69364377 52.99321165 163.5859375 70.63549805 C163.02768871 90.07840056 154.06991961 105.90570058 140.35571289 119.29785156 C131.10770287 127.16113281 131.10770287 127.16113281 126.16430664 127.16113281 C126.16430664 127.82113281 126.16430664 128.48113281 126.16430664 129.16113281 C127.15946289 129.26296875 128.15461914 129.36480469 129.17993164 129.46972656 C133.39882574 130.07924016 137.03689135 131.49535135 140.91430664 133.22363281 C141.96146851 133.68999146 141.96146851 133.68999146 143.02978516 134.16577148 C160.03078193 142.01223497 170.71824537 154.62495458 177.22680664 171.99707031 C183.35781872 191.15648305 180.97677484 213.21690408 172.16430664 231.16113281 C165.20521005 243.70493794 155.60784761 253.15251521 143.16430664 260.16113281 C142.1034082 260.75925781 141.04250977 261.35738281 139.94946289 261.97363281 C117.92480715 273.67974995 94.36520792 275.63674736 69.83227539 275.55957031 C67.53827319 275.56159628 65.24427163 275.56451204 62.95027161 275.56826782 C58.18260462 275.57265499 53.41510792 275.56636983 48.64746094 275.55224609 C42.53886971 275.53502927 36.4306704 275.54509672 30.32209301 275.56296349 C25.60294117 275.57379159 20.88388278 275.57036161 16.16472816 275.56258011 C13.91087103 275.56058195 11.65700536 275.56302385 9.40315819 275.57001877 C6.26626291 275.57763091 3.1300113 275.56603763 -0.00683594 275.54931641 C-1.39616837 275.55842545 -1.39616837 275.55842545 -2.81356812 275.56771851 C-7.57430085 275.52066656 -11.12162263 275.47667674 -14.83569336 272.16113281 C-18.35512497 266.7593283 -18.25697991 261.97846941 -18.20991516 255.75450134 C-18.21388957 254.70751322 -18.21786397 253.66052509 -18.22195882 252.58181006 C-18.23158185 249.07417722 -18.21976333 245.56694769 -18.20800781 242.05932617 C-18.21043575 239.5444168 -18.21415509 237.0295084 -18.21907043 234.51460266 C-18.22750479 228.39355185 -18.22196557 222.27265063 -18.20980749 216.15161031 C-18.19617604 209.02287289 -18.19782634 201.89416347 -18.19994082 194.76541633 C-18.20312953 182.04630477 -18.19146938 169.32724924 -18.171875 156.6081543 C-18.15286734 144.26666559 -18.14578865 131.92524253 -18.15136719 119.58374023 C-18.15742487 106.14247967 -18.15724842 92.70124797 -18.14588135 79.2599898 C-18.14467407 77.82682041 -18.14346808 76.39365103 -18.14226341 74.96048164 C-18.14165987 74.2553429 -18.14105634 73.55020416 -18.14043451 72.82369758 C-18.13655533 67.85464432 -18.13694897 62.88560181 -18.13884926 57.91654778 C-18.14119281 51.2295549 -18.13264299 44.54265865 -18.11678886 37.85568047 C-18.11253948 35.39862925 -18.11169983 32.94156947 -18.11447906 30.48451614 C-18.11769206 27.13651103 -18.10864107 23.78875966 -18.09638977 20.44078064 C-18.10016909 19.4633548 -18.10394842 18.48592896 -18.10784227 17.47888416 C-18.07018469 11.68060794 -17.81966099 7.46509522 -13.89819336 2.91113281 C-9.760627 -0.59952955 -5.14178867 0.00671892 0 0 Z M38.16430664 54.16113281 C38.16430664 74.62113281 38.16430664 95.08113281 38.16430664 116.16113281 C46.95055664 116.25394531 46.95055664 116.25394531 55.91430664 116.34863281 C57.73671875 116.37594482 59.55913086 116.40325684 61.43676758 116.43139648 C73.97095565 116.54163464 86.41639715 116.07902229 96.16430664 107.16113281 C103.84499048 97.9443122 105.11825278 88.95092872 104.16430664 77.16113281 C102.53924406 69.3855169 98.68710563 64.55260431 92.16430664 60.16113281 C77.17698783 50.61830906 53.75171421 54.16113281 38.16430664 54.16113281 Z M38.16430664 153.16113281 C38.16430664 175.60113281 38.16430664 198.04113281 38.16430664 221.16113281 C48.96149414 221.22300781 48.96149414 221.22300781 59.97680664 221.28613281 C62.225979 221.30434082 64.47515137 221.32254883 66.79248047 221.34130859 C68.61043053 221.34715943 70.42838325 221.35225358 72.24633789 221.35644531 C73.16169312 221.36667725 74.07704834 221.37690918 75.0201416 221.38745117 C87.94550496 221.39087556 100.36018008 218.85669782 110.16430664 209.84863281 C116.27338306 203.03924763 118.27901016 195.18447622 118.16430664 186.16113281 C117.27670253 176.93005005 114.08342207 169.16599315 107.28540039 162.76269531 C95.80009517 154.09054956 81.51331667 152.97384549 67.65649414 153.06347656 C66.89989502 153.06448364 66.1432959 153.06549072 65.36376953 153.06652832 C62.58893272 153.07168497 59.81411784 153.08564492 57.03930664 153.09863281 C50.81055664 153.11925781 44.58180664 153.13988281 38.16430664 153.16113281 Z " fill="#0293DD" transform="translate(24.835693359375,5.8388671875)"/>
<path d="M0 0 C3.93363138 3.53018201 5.21946199 7.8112836 5.69165039 12.95727539 C5.76899104 16.08127594 5.75032479 19.18820179 5.6875 22.3125 C5.67436768 23.41964355 5.66123535 24.52678711 5.64770508 25.66748047 C5.60003186 28.84181922 5.52605857 32.01406398 5.4375 35.1875 C5.4063208 36.38052734 5.4063208 36.38052734 5.37451172 37.59765625 C4.9525459 50.97553538 4.9525459 50.97553538 1.4375 56.1875 C-2.60030149 57.66428851 -5.12821354 57.16898793 -8.92578125 55.4921875 C-10.58116039 54.69388187 -12.23066836 53.88331996 -13.875 53.0625 C-22.90756106 48.76358503 -31.86654164 45.60878726 -41.5625 43.1875 C-42.33335937 42.98640625 -43.10421875 42.7853125 -43.8984375 42.578125 C-48.17325349 41.95131914 -52.43519917 41.96182587 -56.75 41.9375 C-57.64525391 41.916875 -58.54050781 41.89625 -59.46289062 41.875 C-69.61174636 41.81637845 -78.87580623 44.31487563 -86.5625 51.1875 C-90.77560622 56.26366841 -91.19217551 61.86613369 -90.94140625 68.2890625 C-89.90312115 76.23140831 -85.69400214 80.4726541 -79.5625 85.1875 C-77.21361187 86.68399115 -74.95550983 88.02891684 -72.5 89.3125 C-71.79883057 89.6830249 -71.09766113 90.0535498 -70.37524414 90.43530273 C-62.32867933 94.53275668 -53.90971566 97.73813228 -45.51226807 101.02896118 C-18.81275097 111.49729894 5.08057196 123.90241662 17.703125 151.01171875 C25.49392088 168.92145173 24.15471146 191.3342902 17.3125 209.375 C7.59031128 230.72909309 -10.21367555 245.43139415 -31.84375 253.6171875 C-58.22781621 262.85387734 -88.35323551 264.3488684 -115.5625 258.1875 C-116.37428711 258.00525879 -117.18607422 257.82301758 -118.02246094 257.63525391 C-127.6454332 255.41413979 -136.77994119 252.8254805 -145.5625 248.1875 C-142.19021299 243.55060537 -138.14279339 239.62767707 -133.5625 236.1875 C-132.9025 236.1875 -132.2425 236.1875 -131.5625 236.1875 C-131.29695313 235.59839844 -131.03140625 235.00929687 -130.7578125 234.40234375 C-129.53113174 232.12937646 -128.2183766 230.60956649 -126.4375 228.75 C-119.44373038 220.94029059 -114.50520025 211.38377403 -109.5625 202.1875 C-108.6446875 202.39246094 -107.726875 202.59742188 -106.78125 202.80859375 C-104.94046875 203.21271484 -104.94046875 203.21271484 -103.0625 203.625 C-101.8559375 203.89183594 -100.649375 204.15867188 -99.40625 204.43359375 C-82.81013474 207.68872611 -63.32796872 208.6214131 -48.4296875 199.5078125 C-42.94006848 195.62603169 -38.88043694 190.85955574 -37.5625 184.1875 C-37.00726023 176.52092009 -37.03594527 170.88957298 -41.7578125 164.59375 C-54.2151181 150.24502103 -77.44999392 144.12373904 -94.5625 137.1875 C-94.54678955 136.31689941 -94.54678955 136.31689941 -94.53076172 135.42871094 C-93.86198713 91.96682825 -97.34892752 46.61778185 -126.5625 12.1875 C-127.87670019 10.83530423 -129.20292466 9.49406437 -130.5625 8.1875 C-128.49562106 1.98686319 -119.32398227 -1.40785789 -113.62890625 -4.3046875 C-78.95084385 -19.7919775 -33.44348331 -17.01510554 0 0 Z " fill="#EB8B1E" transform="translate(420.5625,19.8125)"/>
<path d="M0 0 C0.92039062 0.79921875 1.84078125 1.5984375 2.7890625 2.421875 C3.52382813 3.05609375 4.25859375 3.6903125 5.015625 4.34375 C26.32454847 24.20943961 34.51755387 54.4009534 37.7890625 82.421875 C37.93045654 83.58879883 37.93045654 83.58879883 38.07470703 84.77929688 C39.02956414 93.72318206 39.03257616 102.68698128 39.0390625 111.671875 C39.03973724 112.51402557 39.04041199 113.35617615 39.04110718 114.22384644 C38.98992692 154.548627 30.52008495 195.33103095 1.6015625 225.109375 C-4.67897921 231.34485205 -11.46699071 236.17104131 -19.2109375 240.421875 C-19.79568848 240.74381836 -20.38043945 241.06576172 -20.98291016 241.39746094 C-48.43953337 256.12440076 -85.98164044 258.92750698 -115.9609375 250.796875 C-117.38320642 250.3562334 -118.80296831 249.90626807 -120.2109375 249.421875 C-120.2109375 248.761875 -120.2109375 248.101875 -120.2109375 247.421875 C-119.48390625 247.09316406 -118.756875 246.76445312 -118.0078125 246.42578125 C-98.33189226 237.11755744 -84.03965621 222.79933101 -76.3984375 202.296875 C-74.52142929 196.73994279 -73.1056933 191.21775582 -72.2109375 185.421875 C-71.17195313 185.27492187 -70.13296875 185.12796875 -69.0625 184.9765625 C-57.85543171 183.23584153 -48.8733158 180.36131635 -41.2109375 171.421875 C-40.73140625 170.87144531 -40.251875 170.32101563 -39.7578125 169.75390625 C-23.74139296 150.13783686 -24.71113595 120.28824151 -26.42919922 96.38525391 C-28.11614701 80.02867927 -32.92236738 63.77628006 -45.98828125 52.92578125 C-49.77861175 50.36114638 -53.8865621 48.85053188 -58.2109375 47.421875 C-59.2009375 47.091875 -60.1909375 46.761875 -61.2109375 46.421875 C-63.27592642 46.33871748 -65.3435164 46.31451622 -67.41015625 46.32421875 C-68.61865234 46.32744141 -69.82714844 46.33066406 -71.07226562 46.33398438 C-72.33490234 46.34236328 -73.59753906 46.35074219 -74.8984375 46.359375 C-76.17267578 46.36388672 -77.44691406 46.36839844 -78.75976562 46.37304688 C-81.91020314 46.38484627 -85.06054699 46.40130903 -88.2109375 46.421875 C-88.32050781 45.23851563 -88.43007812 44.05515625 -88.54296875 42.8359375 C-90.2908713 24.96722812 -94.61166974 9.95757482 -107.2109375 -3.578125 C-107.8709375 -3.908125 -108.5309375 -4.238125 -109.2109375 -4.578125 C-109.2109375 -5.238125 -109.2109375 -5.898125 -109.2109375 -6.578125 C-109.78328125 -6.8565625 -110.355625 -7.135 -110.9453125 -7.421875 C-113.17711316 -8.56086292 -115.31964624 -9.77748883 -117.4609375 -11.078125 C-118.16734375 -11.5009375 -118.87375 -11.92375 -119.6015625 -12.359375 C-120.13265625 -12.7615625 -120.66375 -13.16375 -121.2109375 -13.578125 C-121.2109375 -14.238125 -121.2109375 -14.898125 -121.2109375 -15.578125 C-83.69012462 -29.29166886 -31.54346897 -26.31463265 0 0 Z M-57.9609375 2.609375 C-60.35537943 5.17697869 -60.35537943 5.17697869 -60.7734375 7.984375 C-60.01261305 11.28128093 -58.96275306 12.46663763 -56.2109375 14.421875 C-52.55241458 15.03162882 -50.90580871 14.86730526 -47.7734375 12.859375 C-45.89051074 10.40456071 -45.89051074 10.40456071 -46.2109375 6.859375 C-46.92683626 3.43301765 -46.92683626 3.43301765 -49.0234375 1.484375 C-52.85058118 -0.37452336 -54.69388451 0.01058284 -57.9609375 2.609375 Z M-38.2109375 2.421875 C-39.80246558 5.19630977 -39.80246558 5.19630977 -40.2109375 8.421875 C-39.45394385 11.35023871 -39.45394385 11.35023871 -37.2109375 13.421875 C-33.54889379 14.48719681 -31.33514811 14.88308961 -27.7734375 13.421875 C-25.90148355 11.37834909 -25.90148355 11.37834909 -25.7734375 7.921875 C-25.94227551 4.55147603 -25.94227551 4.55147603 -27.3984375 2.546875 C-31.16977807 0.20604292 -34.60768888 -0.4358739 -38.2109375 2.421875 Z M-63.2109375 25.421875 C-65.49066528 28.78718744 -65.2109375 30.00053996 -65.2109375 34.421875 C-57.2909375 34.421875 -49.3709375 34.421875 -41.2109375 34.421875 C-42.24808921 27.00806387 -42.24808921 27.00806387 -47.2109375 22.421875 C-47.5409375 22.091875 -47.8709375 21.761875 -48.2109375 21.421875 C-54.28915226 20.73526185 -58.91145349 20.58495549 -63.2109375 25.421875 Z M-37.2109375 21.421875 C-36.5509375 25.711875 -35.8909375 30.001875 -35.2109375 34.421875 C-30.2609375 34.421875 -25.3109375 34.421875 -20.2109375 34.421875 C-21.02446803 29.62204487 -21.57591321 27.16531807 -24.7734375 23.421875 C-29.33064687 20.77040773 -32.00899481 21.02778843 -37.2109375 21.421875 Z M-2.1484375 55.609375 C-5.24779588 58.08486253 -8.19537302 60.41242835 -11.58984375 62.47265625 C-12.45480469 63.11589844 -13.31976563 63.75914063 -14.2109375 64.421875 C-14.2109375 65.741875 -14.2109375 67.061875 -14.2109375 68.421875 C-1.0109375 68.421875 12.1890625 68.421875 25.7890625 68.421875 C26.25123697 64.54623752 26.25123697 64.54623752 24.30786133 62.88208008 C23.62747803 62.40665771 22.94709473 61.93123535 22.24609375 61.44140625 C21.50166016 60.91740234 20.75722656 60.39339844 19.99023438 59.85351562 C18.8078418 59.05204102 18.8078418 59.05204102 17.6015625 58.234375 C16.83263672 57.68845703 16.06371094 57.14253906 15.27148438 56.58007812 C8.33691341 51.77647403 4.91865432 49.88839591 -2.1484375 55.609375 Z M-10.2109375 73.421875 C-10.2109375 76.721875 -10.2109375 80.021875 -10.2109375 83.421875 C-8.5609375 83.421875 -6.9109375 83.421875 -5.2109375 83.421875 C-5.2109375 80.121875 -5.2109375 76.821875 -5.2109375 73.421875 C-6.8609375 73.421875 -8.5109375 73.421875 -10.2109375 73.421875 Z M-1.2109375 73.421875 C-1.2109375 76.721875 -1.2109375 80.021875 -1.2109375 83.421875 C0.4390625 83.421875 2.0890625 83.421875 3.7890625 83.421875 C3.7890625 80.121875 3.7890625 76.821875 3.7890625 73.421875 C2.1390625 73.421875 0.4890625 73.421875 -1.2109375 73.421875 Z M7.7890625 73.421875 C7.7890625 76.721875 7.7890625 80.021875 7.7890625 83.421875 C9.4390625 83.421875 11.0890625 83.421875 12.7890625 83.421875 C12.7890625 80.121875 12.7890625 76.821875 12.7890625 73.421875 C11.1390625 73.421875 9.4890625 73.421875 7.7890625 73.421875 Z M16.7890625 73.421875 C16.7890625 76.721875 16.7890625 80.021875 16.7890625 83.421875 C18.4390625 83.421875 20.0890625 83.421875 21.7890625 83.421875 C21.7890625 80.121875 21.7890625 76.821875 21.7890625 73.421875 C20.1390625 73.421875 18.4890625 73.421875 16.7890625 73.421875 Z M-14.2109375 90.421875 C-14.5409375 92.071875 -14.8709375 93.721875 -15.2109375 95.421875 C-1.3509375 95.421875 12.5090625 95.421875 26.7890625 95.421875 C26.2940625 92.946875 26.2940625 92.946875 25.7890625 90.421875 C22.13252506 87.98418337 19.39116398 88.13244235 15.1640625 88.15625 C14.049104 88.15337982 14.049104 88.15337982 12.91162109 88.15045166 C11.34146791 88.14909183 9.7713034 88.15277421 8.20117188 88.16113281 C5.79792017 88.17183555 3.39541596 88.1612311 0.9921875 88.1484375 C-0.53385582 88.14975913 -2.05989867 88.1523216 -3.5859375 88.15625 C-4.66415771 88.15017731 -4.66415771 88.15017731 -5.76416016 88.14398193 C-9.46444184 88.17875818 -11.04860151 88.31365101 -14.2109375 90.421875 Z M-15.13037109 132.9362793 C-16.67798946 136.49622113 -16.58080981 139.87898565 -16.50390625 143.6875 C-16.49966141 144.48089783 -16.49541656 145.27429565 -16.49104309 146.09173584 C-16.4742879 148.6187982 -16.43664256 151.14505483 -16.3984375 153.671875 C-16.38338653 155.38800929 -16.36969884 157.10415612 -16.35742188 158.8203125 C-16.32439485 163.02114246 -16.27263515 167.22137225 -16.2109375 171.421875 C-15.1075 170.76058594 -14.0040625 170.09929687 -12.8671875 169.41796875 C-9.5234375 167.4140625 -9.5234375 167.4140625 -6.7109375 167.484375 C-4.2109375 168.421875 -4.2109375 168.421875 -0.7734375 170.234375 C0.4021875 170.62625 1.5778125 171.018125 2.7890625 171.421875 C5.8819982 169.58214265 5.8819982 169.58214265 8.7890625 167.421875 C12.85139124 167.58768434 16.0611049 168.90051625 19.7890625 170.421875 C19.83848615 165.349868 19.87479318 160.27800106 19.89892578 155.20581055 C19.90898576 153.48019977 19.92263526 151.75460605 19.93994141 150.02905273 C19.96419004 147.5492736 19.97554551 145.06971977 19.984375 142.58984375 C19.99469757 141.81787155 20.00502014 141.04589935 20.01565552 140.25053406 C20.01645672 136.42906024 19.96148845 134.68051393 17.7890625 131.421875 C14.63720163 130.93686657 14.63720163 130.93686657 10.91796875 130.98828125 C10.23983627 130.9830394 9.5617038 130.97779755 8.86302185 130.97239685 C7.42814503 130.96597121 5.99321558 130.96732075 4.55834961 130.97583008 C2.3628137 130.98433143 0.16988732 130.95560804 -2.02539062 130.92382812 C-3.41927005 130.92221578 -4.81315409 130.92279429 -6.20703125 130.92578125 C-7.47732178 130.92392822 -8.7476123 130.9220752 -10.05639648 130.92016602 C-13.19542342 131.15612776 -13.19542342 131.15612776 -15.13037109 132.9362793 Z M-42.2109375 189.421875 C-42.8709375 190.081875 -43.5309375 190.741875 -44.2109375 191.421875 C-44.10023471 193.58931919 -43.97248775 195.75590559 -43.8359375 197.921875 C-44.10603399 204.33172589 -44.10603399 204.33172589 -46.81982422 207.00927734 C-50.28219238 209.51384408 -53.95425318 211.47937019 -57.74609375 213.43359375 C-58.88949219 214.08972656 -60.03289062 214.74585938 -61.2109375 215.421875 C-61.2109375 216.411875 -61.2109375 217.401875 -61.2109375 218.421875 C-55.27325285 217.77647449 -49.90901363 216.21715926 -44.2109375 214.421875 C-44.2109375 219.041875 -44.2109375 223.661875 -44.2109375 228.421875 C-45.5309375 229.081875 -46.8509375 229.741875 -48.2109375 230.421875 C-48.2109375 231.081875 -48.2109375 231.741875 -48.2109375 232.421875 C-47.0146875 232.23625 -45.8184375 232.050625 -44.5859375 231.859375 C-40.92810043 231.3907553 -37.83231584 231.60706487 -34.2109375 232.421875 C-34.8709375 231.101875 -35.5309375 229.781875 -36.2109375 228.421875 C-36.8709375 228.421875 -37.5309375 228.421875 -38.2109375 228.421875 C-37.8809375 223.801875 -37.5509375 219.181875 -37.2109375 214.421875 C-31.6009375 216.071875 -25.9909375 217.721875 -20.2109375 219.421875 C-20.73553979 215.51433601 -20.73553979 215.51433601 -22.77734375 214.27197266 C-23.43605469 213.96308105 -24.09476563 213.65418945 -24.7734375 213.3359375 C-34.01502545 208.59217246 -34.01502545 208.59217246 -37.2109375 205.421875 C-38.44733752 201.41627769 -38.50753154 198.48590815 -38.1640625 194.328125 C-38.17953125 193.3690625 -38.195 192.41 -38.2109375 191.421875 C-40.09221142 189.92767634 -40.09221142 189.92767634 -42.2109375 189.421875 Z " fill="#6DBB35" transform="translate(282.2109375,27.578125)"/>
<path d="M0 0 C0.73750488 0.23605957 1.47500977 0.47211914 2.23486328 0.71533203 C2.51000083 3.69593493 2.55996063 5.23885392 0.84545898 7.75170898 C-0.11227417 8.71790161 -0.11227417 8.71790161 -1.08935547 9.70361328 C-1.78867187 10.409375 -2.48798828 11.11513672 -3.20849609 11.84228516 C-3.9490625 12.56351563 -4.68962891 13.28474609 -5.45263672 14.02783203 C-6.17386719 14.76839844 -6.89509766 15.50896484 -7.63818359 16.27197266 C-8.34394531 16.97128906 -9.04970703 17.67060547 -9.77685547 18.39111328 C-10.42098389 19.02960205 -11.0651123 19.66809082 -11.72875977 20.32592773 C-14.24161483 22.04042938 -15.78453382 21.99046958 -18.76513672 21.71533203 C-19.48046875 19.48046875 -19.48046875 19.48046875 -19.76513672 16.71533203 C-18.39746094 14.57128906 -18.39746094 14.57128906 -16.31982422 12.47314453 C-15.57216797 11.71775391 -14.82451172 10.96236328 -14.05419922 10.18408203 C-13.25755859 9.41064453 -12.46091797 8.63720703 -11.64013672 7.84033203 C-10.86669922 7.04369141 -10.09326172 6.24705078 -9.29638672 5.42626953 C-8.54099609 4.67861328 -7.78560547 3.93095703 -7.00732422 3.16064453 C-6.31493652 2.47502441 -5.62254883 1.7894043 -4.90917969 1.08300781 C-2.76513672 -0.28466797 -2.76513672 -0.28466797 0 0 Z " fill="#81C450" transform="translate(292.76513671875,165.28466796875)"/>
<path d="M0 0 C0.80023087 -0.00014603 1.60046173 -0.00029205 2.42494202 -0.0004425 C5.0708385 0.00025434 7.71666464 0.0080361 10.36254883 0.01586914 C12.196721 0.01773413 14.03089368 0.01915765 15.86506653 0.02015686 C20.69344456 0.02397567 25.52179254 0.03380055 30.35015869 0.04486084 C35.27681064 0.05508862 40.20346745 0.05965741 45.13012695 0.06469727 C54.79745787 0.07542336 64.46476648 0.09249218 74.13208008 0.11352539 C74.13208008 0.44352539 74.13208008 0.77352539 74.13208008 1.11352539 C73.13285019 1.1127298 72.1336203 1.1119342 71.10411072 1.1111145 C61.67300082 1.10750734 52.24243507 1.13537122 42.8114996 1.19380379 C37.96323284 1.22283802 33.11544888 1.24090213 28.26708984 1.23364258 C23.58533083 1.22704031 18.9045251 1.24958508 14.22296333 1.29207993 C12.43969683 1.30319522 10.65633347 1.30392549 8.87306023 1.29394913 C-1.93026396 0.78472403 -1.93026396 0.78472403 -11.39306641 5.03881836 C-12.20976807 6.05347168 -13.02646973 7.068125 -13.86791992 8.11352539 C-14.52791992 8.77352539 -15.18791992 9.43352539 -15.86791992 10.11352539 C-15.38945927 5.8073795 -14.20865611 3.8647199 -10.86791992 1.11352539 C-7.19587837 -0.11048846 -3.82231477 -0.01817822 0 0 Z " fill="#2AA5E2" transform="translate(23.867919921875,5.886474609375)"/>
<path d="M0 0 C0.33 0.33 0.66 0.66 1 1 C0.71269945 3.33944736 0.38063221 5.6739143 0 8 C-2.875 8.125 -2.875 8.125 -6 8 C-6.66 7.34 -7.32 6.68 -8 6 C-7.75 2.9375 -7.75 2.9375 -7 0 C-4.31633121 -1.3418344 -2.84719317 -0.73004953 0 0 Z " fill="#7DC14B" transform="translate(294,179)"/>
<path d="M0 0 C1 1 1 1 1.1875 3.4375 C1 6 1 6 -1 8 C-3.5 8.3125 -3.5 8.3125 -6 8 C-8 5 -8 5 -7.75 2.375 C-7.5025 1.59125 -7.255 0.8075 -7 0 C-4.31633121 -1.3418344 -2.84719317 -0.73004953 0 0 Z " fill="#78BF45" transform="translate(281,166)"/>
<path d="M0 0 C0.57975586 0.23517334 1.15951172 0.47034668 1.75683594 0.71264648 C1.08201172 1.27918945 1.08201172 1.27918945 0.39355469 1.85717773 C-5.80796032 7.16388496 -11.52391786 12.8987804 -17.24316406 18.71264648 C-17.57316406 17.72264648 -17.90316406 16.73264648 -18.24316406 15.71264648 C-15.68024556 13.00501837 -13.08981203 10.32541268 -10.49316406 7.65014648 C-9.76355469 6.87864258 -9.03394531 6.10713867 -8.28222656 5.31225586 C-7.57324219 4.5871582 -6.86425781 3.86206055 -6.13378906 3.11499023 C-5.48442383 2.43944092 -4.83505859 1.7638916 -4.16601562 1.06787109 C-2.24316406 -0.28735352 -2.24316406 -0.28735352 0 0 Z " fill="#8FCB63" transform="translate(292.2431640625,165.287353515625)"/>
<path d="M0 0 C1.65 0.33 3.3 0.66 5 1 C4.67 2.65 4.34 4.3 4 6 C2.35 5.67 0.7 5.34 -1 5 C-0.67 3.35 -0.34 1.7 0 0 Z " fill="#7CC04C" transform="translate(286,85)"/>
<path d="M0 0 C0.66 0.33 1.32 0.66 2 1 C1.16855469 1.72316406 1.16855469 1.72316406 0.3203125 2.4609375 C-0.40414063 3.09257812 -1.12859375 3.72421875 -1.875 4.375 C-2.59429688 5.00148438 -3.31359375 5.62796875 -4.0546875 6.2734375 C-5.4076598 7.47426834 -6.7208345 8.7208345 -8 10 C-7.52153935 5.69385411 -6.34073619 3.75119451 -3 1 C-2.01 0.67 -1.02 0.34 0 0 Z " fill="#45AFE3" transform="translate(16,6)"/>
<path d="M0 0 C-1.2065625 0.4021875 -1.2065625 0.4021875 -2.4375 0.8125 C-3.283125 1.204375 -4.12875 1.59625 -5 2 C-5.33 2.99 -5.66 3.98 -6 5 C-6.99 4.34 -7.98 3.68 -9 3 C-9 2.34 -9 1.68 -9 1 C-5.57367167 -0.61798838 -3.61944899 -1.34053666 0 0 Z " fill="#9FD07A" transform="translate(170,11)"/>
</svg>
